{
  "source": "C:\\Users\\Peter\\Desktop\\stuff\\MIUN\\quantitative_research\\video_compression\\videos\\HEVC_CLASS_B\\BQTerrace_1920x1080_60.y4m",
  "output": "C:\\Users\\Peter\\Desktop\\stuff\\MIUN\\quantitative_research\\video_compression\\compressed_videos\\HEVC_CLASS_B\\vp9\\8\\BQTerrace_1920x1080_60_vp9.webm",
  "codec": "vp9",
  "ok": "Input #0, yuv4mpegpipe, from 'C:\\Users\\Peter\\Desktop\\stuff\\MIUN\\quantitative_research\\video_compression\\videos\\HEVC_CLASS_B\\BQTerrace_1920x1080_60.y4m':\n  Duration: 00:00:10.00, start: 0.000000, bitrate: 1492994 kb/s\n  Stream #0:0: Video: rawvideo (I420 / 0x30323449), yuv420p(progressive), 1920x1080, 60 fps, 60 tbr, 60 tbn\n[out#0/webm @ 00000278c3489b80] Codec AVOption b:a (set bitrate (in bits/s)) has not been used for any stream. The most likely reason is either wrong type (e.g. a video option with no video streams) or that it is a private option of some decoder which was not actually used for any stream.\nStream mapping:\n  Stream #0:0 -> #0:0 (rawvideo (native) -> vp9 (libvpx-vp9))\nPress [q] to stop, [?] for help\n[libvpx-vp9 @ 00000278c348cf40] v1.15.2-100-g40561f514\nOutput #0, webm, to 'C:\\Users\\Peter\\Desktop\\stuff\\MIUN\\quantitative_research\\video_compression\\compressed_videos\\HEVC_CLASS_B\\vp9\\8\\BQTerrace_1920x1080_60_vp9.webm':\n  Metadata:\n    encoder         : Lavf62.3.100\n  Stream #0:0: Video: vp9, yuv420p(tv, progressive), 1920x1080, q=2-31, 8000 kb/s, 60 fps, 1k tbn\n    Metadata:\n      encoder         : Lavc62.11.100 libvpx-vp9\n    Side data:\n      cpb: bitrate max/min/avg: 0/0/0 buffer size: 8000000 vbv_delay: N/A\nframe=    1 fps=0.0 q=12.0 size=       0KiB time=00:00:00.01 bitrate= 230.9kbits/s speed=0.0325x elapsed=0:00:00.51    \nframe=    6 fps=5.6 q=40.0 size=       0KiB time=00:00:00.10 bitrate=  38.5kbits/s speed=0.0935x elapsed=0:00:01.06    \nframe=   10 fps=6.2 q=39.0 size=       0KiB time=00:00:00.16 bitrate=  23.1kbits/s speed=0.103x elapsed=0:00:01.61    \nframe=   13 fps=6.1 q=30.0 size=       0KiB time=00:00:00.21 bitrate=  17.8kbits/s speed=0.101x elapsed=0:00:02.13    \nframe=   17 fps=6.4 q=38.0 size=       0KiB time=00:00:00.28 bitrate=  13.6kbits/s speed=0.107x elapsed=0:00:02.65    \nframe=   20 fps=6.3 q=38.0 size=       0KiB time=00:00:00.33 bitrate=  11.5kbits/s speed=0.104x elapsed=0:00:03.19    \nframe=   24 fps=6.4 q=38.0 size=       0KiB time=00:00:00.40 bitrate=   9.6kbits/s speed=0.107x elapsed=0:00:03.73    \nframe=   27 fps=6.3 q=36.0 size=       0KiB time=00:00:00.45 bitrate=   8.6kbits/s speed=0.106x elapsed=0:00:04.26    \nframe=   30 fps=6.3 q=38.0 size=       0KiB time=00:00:00.50 bitrate=   7.7kbits/s speed=0.104x elapsed=0:00:04.79    \nframe=   34 fps=6.4 q=38.0 size=       0KiB time=00:00:00.56 bitrate=   6.8kbits/s speed=0.107x elapsed=0:00:05.31    \nframe=   36 fps=6.2 q=38.0 size=       0KiB time=00:00:00.60 bitrate=   6.4kbits/s speed=0.103x elapsed=0:00:05.84    \nframe=   40 fps=6.3 q=38.0 size=       0KiB time=00:00:00.66 bitrate=   5.8kbits/s speed=0.105x elapsed=0:00:06.36    \nframe=   44 fps=6.4 q=38.0 size=       0KiB time=00:00:00.73 bitrate=   5.2kbits/s speed=0.107x elapsed=0:00:06.87    \nframe=   47 fps=6.3 q=39.0 size=       0KiB time=00:00:00.78 bitrate=   4.9kbits/s speed=0.106x elapsed=0:00:07.40    \nframe=   50 fps=6.3 q=39.0 size=       0KiB time=00:00:00.83 bitrate=   4.6kbits/s speed=0.105x elapsed=0:00:07.92    \nframe=   54 fps=6.4 q=38.0 size=       0KiB time=00:00:00.90 bitrate=   4.3kbits/s speed=0.107x elapsed=0:00:08.44    \nframe=   58 fps=6.5 q=38.0 size=       0KiB time=00:00:00.96 bitrate=   4.0kbits/s speed=0.108x elapsed=0:00:08.98    \nframe=   60 fps=6.3 q=38.0 size=       0KiB time=00:00:01.00 bitrate=   3.8kbits/s speed=0.105x elapsed=0:00:09.49    \nframe=   64 fps=6.4 q=37.0 size=       0KiB time=00:00:01.06 bitrate=   3.6kbits/s speed=0.107x elapsed=0:00:10.01    \nframe=   68 fps=6.5 q=37.0 size=       0KiB time=00:00:01.13 bitrate=   3.4kbits/s speed=0.108x elapsed=0:00:10.52    \nframe=   71 fps=6.4 q=38.0 size=       0KiB time=00:00:01.18 bitrate=   3.3kbits/s speed=0.107x elapsed=0:00:11.07    \nframe=   74 fps=6.4 q=39.0 size=       0KiB time=00:00:01.23 bitrate=   3.1kbits/s speed=0.106x elapsed=0:00:11.61    \nframe=   78 fps=6.4 q=39.0 size=       0KiB time=00:00:01.30 bitrate=   3.0kbits/s speed=0.107x elapsed=0:00:12.15    \nframe=   82 fps=6.4 q=39.0 size=       0KiB time=00:00:01.36 bitrate=   2.8kbits/s speed=0.107x elapsed=0:00:12.71    \nframe=   85 fps=6.4 q=30.0 size=       0KiB time=00:00:01.41 bitrate=   2.7kbits/s speed=0.107x elapsed=0:00:13.25    \nframe=   89 fps=6.5 q=36.0 size=       0KiB time=00:00:01.46 bitrate=   2.6kbits/s speed=0.106x elapsed=0:00:13.78    \nframe=   92 fps=6.4 q=37.0 size=       0KiB time=00:00:01.53 bitrate=   2.5kbits/s speed=0.107x elapsed=0:00:14.33    \nframe=   95 fps=6.4 q=38.0 size=       0KiB time=00:00:01.58 bitrate=   2.4kbits/s speed=0.106x elapsed=0:00:14.88    \nframe=   98 fps=6.4 q=40.0 size=       0KiB time=00:00:01.63 bitrate=   2.4kbits/s speed=0.106x elapsed=0:00:15.40    \nframe=  101 fps=6.3 q=39.0 size=       0KiB time=00:00:01.68 bitrate=   2.3kbits/s speed=0.106x elapsed=0:00:15.92    \nframe=  104 fps=6.3 q=39.0 size=       0KiB time=00:00:01.73 bitrate=   2.2kbits/s speed=0.105x elapsed=0:00:16.44    \nframe=  108 fps=6.4 q=39.0 size=       0KiB time=00:00:01.80 bitrate=   2.1kbits/s speed=0.106x elapsed=0:00:16.96    \nframe=  111 fps=6.3 q=36.0 size=       0KiB time=00:00:01.85 bitrate=   2.1kbits/s speed=0.106x elapsed=0:00:17.52    \nframe=  114 fps=6.3 q=37.0 size=       0KiB time=00:00:01.90 bitrate=   2.0kbits/s speed=0.105x elapsed=0:00:18.06    \nframe=  118 fps=6.3 q=36.0 size=       0KiB time=00:00:01.96 bitrate=   2.0kbits/s speed=0.106x elapsed=0:00:18.63    \nframe=  121 fps=6.3 q=28.0 size=       0KiB time=00:00:02.01 bitrate=   1.9kbits/s speed=0.105x elapsed=0:00:19.16    \nframe=  125 fps=6.3 q=35.0 size=       0KiB time=00:00:02.08 bitrate=   1.8kbits/s speed=0.106x elapsed=0:00:19.69    \nframe=  128 fps=6.3 q=36.0 size=       0KiB time=00:00:02.13 bitrate=   1.8kbits/s speed=0.105x elapsed=0:00:20.24    \nframe=  131 fps=6.3 q=36.0 size=    2560KiB time=00:00:02.18 bitrate=9605.3kbits/s speed=0.105x elapsed=0:00:20.76    \nframe=  135 fps=6.3 q=36.0 size=    2560KiB time=00:00:02.25 bitrate=9320.7kbits/s speed=0.106x elapsed=0:00:21.31    \nframe=  139 fps=6.4 q=36.0 size=    2560KiB time=00:00:02.31 bitrate=9052.5kbits/s speed=0.106x elapsed=0:00:21.83    \nframe=  141 fps=6.3 q=40.0 size=    2560KiB time=00:00:02.35 bitrate=8924.1kbits/s speed=0.105x elapsed=0:00:22.38    \nframe=  145 fps=6.3 q=37.0 size=    2560KiB time=00:00:02.41 bitrate=8677.9kbits/s speed=0.106x elapsed=0:00:22.88    \nframe=  149 fps=6.4 q=37.0 size=    2560KiB time=00:00:02.48 bitrate=8444.9kbits/s speed=0.106x elapsed=0:00:23.42    \nframe=  152 fps=6.4 q=28.0 size=    2560KiB time=00:00:02.53 bitrate=8278.2kbits/s speed=0.106x elapsed=0:00:23.93    \nframe=  155 fps=6.3 q=34.0 size=    2560KiB time=00:00:02.58 bitrate=8118.0kbits/s speed=0.106x elapsed=0:00:24.47    \nframe=  158 fps=6.3 q=35.0 size=    2560KiB time=00:00:02.63 bitrate=7963.9kbits/s speed=0.105x elapsed=0:00:24.98    \nframe=  162 fps=6.4 q=35.0 size=    2560KiB time=00:00:02.70 bitrate=7767.2kbits/s speed=0.106x elapsed=0:00:25.50    \nframe=  164 fps=6.3 q=20.0 size=    2560KiB time=00:00:02.73 bitrate=7672.5kbits/s speed=0.105x elapsed=0:00:26.04    \nframe=  169 fps=6.4 q=36.0 size=    2560KiB time=00:00:02.81 bitrate=7445.5kbits/s speed=0.106x elapsed=0:00:26.60    \nframe=  172 fps=6.3 q=36.0 size=    2560KiB time=00:00:02.86 bitrate=7315.6kbits/s speed=0.106x elapsed=0:00:27.12    \nframe=  175 fps=6.3 q=36.0 size=    2560KiB time=00:00:02.91 bitrate=7190.2kbits/s speed=0.105x elapsed=0:00:27.64    \nframe=  179 fps=6.3 q=32.0 size=    2560KiB time=00:00:02.98 bitrate=7029.6kbits/s speed=0.106x elapsed=0:00:28.18    \nframe=  183 fps=6.4 q=35.0 size=    2560KiB time=00:00:03.05 bitrate=6875.9kbits/s speed=0.106x elapsed=0:00:28.76    \nframe=  186 fps=6.3 q=33.0 size=    2560KiB time=00:00:03.10 bitrate=6765.0kbits/s speed=0.106x elapsed=0:00:29.29    \nframe=  189 fps=6.3 q=39.0 size=    2560KiB time=00:00:03.15 bitrate=6657.6kbits/s speed=0.106x elapsed=0:00:29.80    \nframe=  193 fps=6.4 q=35.0 size=    2560KiB time=00:00:03.21 bitrate=6519.6kbits/s speed=0.106x elapsed=0:00:30.33    \nframe=  198 fps=6.4 q=35.0 size=    2560KiB time=00:00:03.30 bitrate=6355.0kbits/s speed=0.107x elapsed=0:00:30.86    \nframe=  201 fps=6.4 q=30.0 size=    2560KiB time=00:00:03.35 bitrate=6260.2kbits/s speed=0.107x elapsed=0:00:31.40    \nframe=  205 fps=6.4 q=32.0 size=    2560KiB time=00:00:03.41 bitrate=6138.0kbits/s speed=0.107x elapsed=0:00:31.96    \nframe=  209 fps=6.4 q=32.0 size=    2560KiB time=00:00:03.48 bitrate=6020.5kbits/s speed=0.107x elapsed=0:00:32.52    \nframe=  212 fps=6.4 q=23.0 size=    2560KiB time=00:00:03.53 bitrate=5935.3kbits/s speed=0.107x elapsed=0:00:33.07    \nframe=  216 fps=6.4 q=32.0 size=    2560KiB time=00:00:03.60 bitrate=5825.4kbits/s speed=0.107x elapsed=0:00:33.60    \nframe=  220 fps=6.4 q=34.0 size=    2560KiB time=00:00:03.66 bitrate=5719.5kbits/s speed=0.107x elapsed=0:00:34.16    \nframe=  223 fps=6.4 q=33.0 size=    2560KiB time=00:00:03.71 bitrate=5642.6kbits/s speed=0.107x elapsed=0:00:34.72    \nframe=  226 fps=6.4 q=32.0 size=    2560KiB time=00:00:03.76 bitrate=5567.7kbits/s speed=0.107x elapsed=0:00:35.26    \nframe=  230 fps=6.4 q=33.0 size=    2560KiB time=00:00:03.83 bitrate=5470.8kbits/s speed=0.107x elapsed=0:00:35.80    \nframe=  234 fps=6.4 q=33.0 size=    2560KiB time=00:00:03.90 bitrate=5377.3kbits/s speed=0.107x elapsed=0:00:36.36    \nframe=  237 fps=6.4 q=35.0 size=    2560KiB time=00:00:03.95 bitrate=5309.2kbits/s speed=0.107x elapsed=0:00:36.90    \nframe=  241 fps=6.4 q=33.0 size=    2560KiB time=00:00:04.01 bitrate=5221.1kbits/s speed=0.107x elapsed=0:00:37.43    \nframe=  245 fps=6.5 q=34.0 size=    2560KiB time=00:00:04.08 bitrate=5135.9kbits/s speed=0.108x elapsed=0:00:37.98    \nframe=  248 fps=6.4 q=33.0 size=    2560KiB time=00:00:04.13 bitrate=5073.8kbits/s speed=0.107x elapsed=0:00:38.53    \nframe=  251 fps=6.4 q=35.0 size=    2560KiB time=00:00:04.18 bitrate=5013.1kbits/s speed=0.107x elapsed=0:00:39.10    \nframe=  255 fps=6.4 q=35.0 size=    2560KiB time=00:00:04.25 bitrate=4934.5kbits/s speed=0.107x elapsed=0:00:39.62    \nframe=  258 fps=6.4 q=35.0 size=    4864KiB time=00:00:04.30 bitrate=9266.5kbits/s speed=0.107x elapsed=0:00:40.15    \nframe=  262 fps=6.4 q=35.0 size=    4864KiB time=00:00:04.35 bitrate=9160.0kbits/s speed=0.107x elapsed=0:00:40.71    \nframe=  266 fps=6.4 q=35.0 size=    4864KiB time=00:00:04.43 bitrate=8987.8kbits/s speed=0.107x elapsed=0:00:41.28    \nframe=  269 fps=6.4 q=26.0 size=    4864KiB time=00:00:04.48 bitrate=8887.6kbits/s speed=0.107x elapsed=0:00:41.83    \nframe=  273 fps=6.4 q=34.0 size=    4864KiB time=00:00:04.55 bitrate=8757.3kbits/s speed=0.107x elapsed=0:00:42.36    \nframe=  276 fps=6.4 q=35.0 size=    4864KiB time=00:00:04.60 bitrate=8662.1kbits/s speed=0.107x elapsed=0:00:42.90    \nframe=  280 fps=6.4 q=34.0 size=    4864KiB time=00:00:04.66 bitrate=8538.4kbits/s speed=0.107x elapsed=0:00:43.43    \nframe=  283 fps=6.4 q=33.0 size=    4864KiB time=00:00:04.71 bitrate=8447.9kbits/s speed=0.107x elapsed=0:00:43.99    \nframe=  286 fps=6.4 q=34.0 size=    4864KiB time=00:00:04.76 bitrate=8359.3kbits/s speed=0.107x elapsed=0:00:44.57    \nframe=  290 fps=6.4 q=35.0 size=    4864KiB time=00:00:04.83 bitrate=8244.0kbits/s speed=0.107x elapsed=0:00:45.10    \nframe=  292 fps=6.4 q=34.0 size=    4864KiB time=00:00:04.86 bitrate=8187.5kbits/s speed=0.107x elapsed=0:00:45.64    \nframe=  296 fps=6.4 q=33.0 size=    4864KiB time=00:00:04.93 bitrate=8076.9kbits/s speed=0.107x elapsed=0:00:46.15    \nframe=  299 fps=6.4 q=34.0 size=    4864KiB time=00:00:04.98 bitrate=7995.8kbits/s speed=0.107x elapsed=0:00:46.69    \nframe=  303 fps=6.4 q=35.0 size=    4864KiB time=00:00:05.05 bitrate=7890.3kbits/s speed=0.107x elapsed=0:00:47.21    \nframe=  306 fps=6.4 q=37.0 size=    4864KiB time=00:00:05.10 bitrate=7812.9kbits/s speed=0.107x elapsed=0:00:47.73    \nframe=  310 fps=6.4 q=35.0 size=    4864KiB time=00:00:05.16 bitrate=7712.1kbits/s speed=0.107x elapsed=0:00:48.29    \nframe=  312 fps=6.4 q=33.0 size=    4864KiB time=00:00:05.20 bitrate=7662.7kbits/s speed=0.107x elapsed=0:00:48.80    \nframe=  316 fps=6.4 q=35.0 size=    4864KiB time=00:00:05.26 bitrate=7565.7kbits/s speed=0.107x elapsed=0:00:49.32    \nframe=  320 fps=6.4 q=37.0 size=    4864KiB time=00:00:05.33 bitrate=7471.1kbits/s speed=0.107x elapsed=0:00:49.84    \nframe=  322 fps=6.4 q=37.0 size=    4864KiB time=00:00:05.36 bitrate=7424.7kbits/s speed=0.107x elapsed=0:00:50.37    \nframe=  326 fps=6.4 q=36.0 size=    4864KiB time=00:00:05.43 bitrate=7333.6kbits/s speed=0.107x elapsed=0:00:50.89    \nframe=  330 fps=6.4 q=37.0 size=    4864KiB time=00:00:05.50 bitrate=7244.7kbits/s speed=0.107x elapsed=0:00:51.42    \nframe=  334 fps=6.4 q=37.0 size=    4864KiB time=00:00:05.56 bitrate=7157.9kbits/s speed=0.107x elapsed=0:00:51.96    \nframe=  337 fps=6.4 q=36.0 size=    4864KiB time=00:00:05.61 bitrate=7094.2kbits/s speed=0.107x elapsed=0:00:52.50    \nframe=  341 fps=6.4 q=37.0 size=    4864KiB time=00:00:05.68 bitrate=7011.0kbits/s speed=0.107x elapsed=0:00:53.03    \nframe=  345 fps=6.4 q=37.0 size=    4864KiB time=00:00:05.75 bitrate=6929.7kbits/s speed=0.107x elapsed=0:00:53.59    \nframe=  348 fps=6.4 q=37.0 size=    4864KiB time=00:00:05.80 bitrate=6870.0kbits/s speed=0.107x elapsed=0:00:54.18    \nframe=  352 fps=6.4 q=37.0 size=    4864KiB time=00:00:05.86 bitrate=6791.9kbits/s speed=0.107x elapsed=0:00:54.72    \nframe=  357 fps=6.5 q=37.0 size=    4864KiB time=00:00:05.95 bitrate=6696.8kbits/s speed=0.108x elapsed=0:00:55.28    \nframe=  360 fps=6.4 q=37.0 size=    4864KiB time=00:00:06.00 bitrate=6641.0kbits/s speed=0.107x elapsed=0:00:55.85    \nframe=  364 fps=6.5 q=36.0 size=    4864KiB time=00:00:06.06 bitrate=6568.0kbits/s speed=0.108x elapsed=0:00:56.40    \nframe=  368 fps=6.5 q=37.0 size=    4864KiB time=00:00:06.13 bitrate=6496.6kbits/s speed=0.108x elapsed=0:00:56.93    \nframe=  371 fps=6.5 q=28.0 size=    4864KiB time=00:00:06.18 bitrate=6444.1kbits/s speed=0.108x elapsed=0:00:57.47    \nframe=  375 fps=6.5 q=39.0 size=    4864KiB time=00:00:06.25 bitrate=6375.3kbits/s speed=0.108x elapsed=0:00:57.98    \nframe=  379 fps=6.5 q=38.0 size=    4864KiB time=00:00:06.31 bitrate=6308.1kbits/s speed=0.108x elapsed=0:00:58.50    \nframe=  383 fps=6.5 q=38.0 size=    4864KiB time=00:00:06.38 bitrate=6242.2kbits/s speed=0.108x elapsed=0:00:59.04    \nframe=  385 fps=6.5 q=27.0 size=    4864KiB time=00:00:06.41 bitrate=6209.7kbits/s speed=0.108x elapsed=0:00:59.65    \nframe=  389 fps=6.5 q=38.0 size=    7168KiB time=00:00:06.48 bitrate=9057.1kbits/s speed=0.108x elapsed=0:01:00.19    \nframe=  393 fps=6.5 q=37.0 size=    7168KiB time=00:00:06.55 bitrate=8964.9kbits/s speed=0.108x elapsed=0:01:00.71    \nframe=  396 fps=6.5 q=38.0 size=    7168KiB time=00:00:06.60 bitrate=8897.0kbits/s speed=0.108x elapsed=0:01:01.28    \nframe=  400 fps=6.5 q=36.0 size=    7168KiB time=00:00:06.66 bitrate=8808.0kbits/s speed=0.108x elapsed=0:01:01.83    \nframe=  403 fps=6.5 q=38.0 size=    7168KiB time=00:00:06.71 bitrate=8742.5kbits/s speed=0.108x elapsed=0:01:02.35    \nframe=  407 fps=6.5 q=37.0 size=    7168KiB time=00:00:06.78 bitrate=8656.5kbits/s speed=0.108x elapsed=0:01:02.87    \nframe=  410 fps=6.5 q=37.0 size=    7168KiB time=00:00:06.83 bitrate=8593.2kbits/s speed=0.108x elapsed=0:01:03.39    \nframe=  413 fps=6.5 q=38.0 size=    7168KiB time=00:00:06.88 bitrate=8530.8kbits/s speed=0.108x elapsed=0:01:03.91    \nframe=  417 fps=6.5 q=36.0 size=    7168KiB time=00:00:06.95 bitrate=8449.0kbits/s speed=0.108x elapsed=0:01:04.43    \nframe=  420 fps=6.5 q=37.0 size=    7168KiB time=00:00:07.00 bitrate=8388.6kbits/s speed=0.108x elapsed=0:01:04.97    \nframe=  423 fps=6.5 q=36.0 size=    7168KiB time=00:00:07.05 bitrate=8329.1kbits/s speed=0.108x elapsed=0:01:05.53    \nframe=  427 fps=6.5 q=36.0 size=    7168KiB time=00:00:07.11 bitrate=8251.1kbits/s speed=0.108x elapsed=0:01:06.04    \nframe=  430 fps=6.5 q=36.0 size=    7168KiB time=00:00:07.16 bitrate=8193.5kbits/s speed=0.108x elapsed=0:01:06.57    \nframe=  432 fps=6.4 q=36.0 size=    7168KiB time=00:00:07.20 bitrate=8155.6kbits/s speed=0.107x elapsed=0:01:07.08    \nframe=  436 fps=6.4 q=36.0 size=    7168KiB time=00:00:07.26 bitrate=8080.8kbits/s speed=0.107x elapsed=0:01:07.60    \nframe=  440 fps=6.5 q=36.0 size=    7168KiB time=00:00:07.33 bitrate=8007.3kbits/s speed=0.108x elapsed=0:01:08.13    \nframe=  444 fps=6.5 q=36.0 size=    7168KiB time=00:00:07.40 bitrate=7935.2kbits/s speed=0.108x elapsed=0:01:08.69    \nframe=  446 fps=6.4 q=38.0 size=    7168KiB time=00:00:07.43 bitrate=7899.6kbits/s speed=0.107x elapsed=0:01:09.25    \nframe=  450 fps=6.4 q=37.0 size=    7168KiB time=00:00:07.50 bitrate=7829.4kbits/s speed=0.107x elapsed=0:01:09.80    \nframe=  454 fps=6.5 q=37.0 size=    7168KiB time=00:00:07.56 bitrate=7760.4kbits/s speed=0.108x elapsed=0:01:10.34    \nframe=  456 fps=6.4 q=37.0 size=    7168KiB time=00:00:07.60 bitrate=7726.3kbits/s speed=0.107x elapsed=0:01:10.89    \nframe=  460 fps=6.4 q=38.0 size=    7168KiB time=00:00:07.66 bitrate=7659.2kbits/s speed=0.107x elapsed=0:01:11.40    \nframe=  464 fps=6.5 q=37.0 size=    7168KiB time=00:00:07.71 bitrate=7609.5kbits/s speed=0.107x elapsed=0:01:11.93    \nframe=  467 fps=6.4 q=37.0 size=    7168KiB time=00:00:07.78 bitrate=7544.4kbits/s speed=0.107x elapsed=0:01:12.51    \nframe=  469 fps=6.4 q=26.0 size=    7168KiB time=00:00:07.81 bitrate=7512.2kbits/s speed=0.107x elapsed=0:01:13.06    \nframe=  471 fps=6.4 q=36.0 size=    7168KiB time=00:00:07.85 bitrate=7480.3kbits/s speed=0.107x elapsed=0:01:13.63    \nframe=  473 fps=6.4 q=36.0 size=    7168KiB time=00:00:07.88 bitrate=7448.7kbits/s speed=0.106x elapsed=0:01:14.24    \nframe=  476 fps=6.4 q=37.0 size=    7168KiB time=00:00:07.91 bitrate=7417.3kbits/s speed=0.106x elapsed=0:01:14.80    \nframe=  477 fps=6.3 q=37.0 size=    7168KiB time=00:00:07.95 bitrate=7386.2kbits/s speed=0.105x elapsed=0:01:15.38    \nframe=  480 fps=6.3 q=37.0 size=    7168KiB time=00:00:08.00 bitrate=7340.0kbits/s speed=0.105x elapsed=0:01:15.94    \nframe=  481 fps=6.3 q=26.0 size=    7168KiB time=00:00:08.01 bitrate=7324.8kbits/s speed=0.105x elapsed=0:01:16.58    \nframe=  483 fps=6.3 q=35.0 size=    7168KiB time=00:00:08.05 bitrate=7294.4kbits/s speed=0.104x elapsed=0:01:17.13    \nframe=  486 fps=6.3 q=37.0 size=    7168KiB time=00:00:08.10 bitrate=7249.4kbits/s speed=0.104x elapsed=0:01:17.65    \nframe=  488 fps=6.2 q=37.0 size=    7168KiB time=00:00:08.13 bitrate=7219.7kbits/s speed=0.104x elapsed=0:01:18.19    \nframe=  491 fps=6.2 q=37.0 size=    7168KiB time=00:00:08.18 bitrate=7175.6kbits/s speed=0.104x elapsed=0:01:18.74    \nframe=  492 fps=6.2 q=37.0 size=    7168KiB time=00:00:08.20 bitrate=7161.0kbits/s speed=0.103x elapsed=0:01:19.32    \nframe=  495 fps=6.2 q=36.0 size=    7168KiB time=00:00:08.23 bitrate=7132.0kbits/s speed=0.103x elapsed=0:01:19.88    \nframe=  497 fps=6.2 q=36.0 size=    7168KiB time=00:00:08.28 bitrate=7089.0kbits/s speed=0.103x elapsed=0:01:20.51    \nframe=  500 fps=6.2 q=37.0 size=    7168KiB time=00:00:08.33 bitrate=7046.4kbits/s speed=0.103x elapsed=0:01:21.06    \nframe=  502 fps=6.1 q=37.0 size=    7168KiB time=00:00:08.36 bitrate=7018.4kbits/s speed=0.102x elapsed=0:01:21.70    \nframe=  505 fps=6.1 q=36.0 size=    7168KiB time=00:00:08.40 bitrate=6990.5kbits/s speed=0.102x elapsed=0:01:22.31    \nframe=  508 fps=6.1 q=36.0 size=    7168KiB time=00:00:08.46 bitrate=6935.5kbits/s speed=0.102x elapsed=0:01:22.87    \nframe=  512 fps=6.1 q=37.0 size=    7168KiB time=00:00:08.53 bitrate=6881.3kbits/s speed=0.102x elapsed=0:01:23.40    \nframe=  513 fps=6.1 q=26.0 size=    7168KiB time=00:00:08.55 bitrate=6867.9kbits/s speed=0.102x elapsed=0:01:23.93    \nframe=  516 fps=6.1 q=38.0 size=    9472KiB time=00:00:08.60 bitrate=9022.6kbits/s speed=0.102x elapsed=0:01:24.46    \nframe=  521 fps=6.1 q=37.0 size=    9472KiB time=00:00:08.68 bitrate=8936.0kbits/s speed=0.102x elapsed=0:01:25.02    \nframe=  523 fps=6.1 q=37.0 size=    9472KiB time=00:00:08.71 bitrate=8901.9kbits/s speed=0.102x elapsed=0:01:25.56    \nframe=  527 fps=6.1 q=37.0 size=    9472KiB time=00:00:08.78 bitrate=8834.3kbits/s speed=0.102x elapsed=0:01:26.08    \nframe=  531 fps=6.1 q=37.0 size=    9472KiB time=00:00:08.85 bitrate=8767.8kbits/s speed=0.102x elapsed=0:01:26.63    \nframe=  534 fps=6.1 q=38.0 size=    9472KiB time=00:00:08.90 bitrate=8718.5kbits/s speed=0.102x elapsed=0:01:27.18    \nframe=  537 fps=6.1 q=35.0 size=    9472KiB time=00:00:08.95 bitrate=8669.8kbits/s speed=0.102x elapsed=0:01:27.71    \nframe=  541 fps=6.1 q=37.0 size=    9472KiB time=00:00:09.01 bitrate=8605.7kbits/s speed=0.102x elapsed=0:01:28.26    \nframe=  544 fps=6.1 q=36.0 size=    9472KiB time=00:00:09.06 bitrate=8558.2kbits/s speed=0.102x elapsed=0:01:28.78    \nframe=  546 fps=6.1 q=37.0 size=    9472KiB time=00:00:09.10 bitrate=8526.9kbits/s speed=0.102x elapsed=0:01:29.30    \nframe=  550 fps=6.1 q=35.0 size=    9472KiB time=00:00:09.16 bitrate=8464.9kbits/s speed=0.102x elapsed=0:01:29.82    \nframe=  554 fps=6.1 q=35.0 size=    9472KiB time=00:00:09.23 bitrate=8403.8kbits/s speed=0.102x elapsed=0:01:30.34    \nframe=  557 fps=6.1 q=36.0 size=    9472KiB time=00:00:09.28 bitrate=8358.5kbits/s speed=0.102x elapsed=0:01:30.88    \nframe=  560 fps=6.1 q=36.0 size=    9472KiB time=00:00:09.33 bitrate=8313.7kbits/s speed=0.102x elapsed=0:01:31.41    \nframe=  563 fps=6.1 q=35.0 size=    9472KiB time=00:00:09.38 bitrate=8269.4kbits/s speed=0.102x elapsed=0:01:31.98    \nframe=  567 fps=6.1 q=35.0 size=    9472KiB time=00:00:09.45 bitrate=8211.1kbits/s speed=0.102x elapsed=0:01:32.49    \nframe=  570 fps=6.1 q=36.0 size=    9472KiB time=00:00:09.50 bitrate=8167.9kbits/s speed=0.102x elapsed=0:01:33.01    \nframe=  573 fps=6.1 q=35.0 size=    9472KiB time=00:00:09.55 bitrate=8125.1kbits/s speed=0.102x elapsed=0:01:33.58    \nframe=  576 fps=6.1 q=36.0 size=    9472KiB time=00:00:09.60 bitrate=8082.8kbits/s speed=0.102x elapsed=0:01:34.12    \nframe=  576 fps=6.1 q=36.0 size=    9472KiB time=00:00:09.60 bitrate=8082.8kbits/s speed=0.101x elapsed=0:01:34.66    \nframe=  576 fps=6.1 q=36.0 size=    9472KiB time=00:00:09.60 bitrate=8082.8kbits/s speed=0.101x elapsed=0:01:35.19    \nframe=  576 fps=6.0 q=36.0 size=    9472KiB time=00:00:09.60 bitrate=8082.8kbits/s speed= 0.1x elapsed=0:01:35.72    \nframe=  576 fps=6.0 q=36.0 size=    9472KiB time=00:00:09.60 bitrate=8082.8kbits/s speed=0.0997x elapsed=0:01:36.25    \nframe=  576 fps=6.0 q=36.0 size=    9472KiB time=00:00:09.60 bitrate=8082.8kbits/s speed=0.0992x elapsed=0:01:36.77    \nframe=  576 fps=5.9 q=36.0 size=    9472KiB time=00:00:09.60 bitrate=8082.8kbits/s speed=0.0987x elapsed=0:01:37.30    \n[out#0/webm @ 00000278c3489b80] video:11286KiB audio:0KiB subtitle:0KiB other streams:0KiB global headers:0KiB muxing overhead: 0.042373%\nframe=  600 fps=6.1 q=36.0 Lsize=   11291KiB time=00:00:10.00 bitrate=9249.5kbits/s speed=0.102x elapsed=0:01:37.71    \n",
  "seconds": 97.84808444976807,
  "probe_out": {}
}